Coordinates
version=1
nRows=19
nColumns=24
inDegrees=yes

Units are S.I. units (second, meters, Newtons, ...)
Angles are in degrees.

endheader
time	pelvis_tilt	pelvis_list	pelvis_rotation	pelvis_tx	pelvis_ty	pelvis_tz	hip_flexion_r	hip_adduction_r	hip_rotation_r	knee_angle_r	ankle_angle_r	subtalar_angle_r	mtp_angle_r	hip_flexion_l	hip_adduction_l	hip_rotation_l	knee_angle_l	ankle_angle_l	subtalar_angle_l	mtp_angle_l	lumbar_extension	lumbar_bending	lumbar_rotation
      1.73000000	     13.91281238	     -3.37354959	     -0.57121445	     -0.03192485	      0.93895991	      0.27758864	    -21.72333129	      6.87454835	      2.73810537	     -5.06479161	     20.78347569	      3.25680946	     19.85224647	     15.55888527	     -4.29456604	     -9.26537178	    -34.94869910	     19.10922297	      1.36371877	     38.77768235	    -30.27832772	      4.51664258	      7.79313657
      1.73500000	     14.19460491	     -3.16798200	     -0.63252325	     -0.02526610	      0.93859661	      0.27742743	    -22.55233692	      6.59035863	      2.53070308	     -4.95105385	     21.32868452	      3.91520659	     17.41091590	     14.96526899	     -3.94816756	     -9.63724969	    -32.39683993	     18.53335354	      1.81160960	     38.72830321	    -30.55544075	      4.24241830	      7.80377527
      1.74000000	     14.45089530	     -3.02936058	     -0.95100884	     -0.01850678	      0.93825331	      0.27774132	    -23.39813239	      6.29357240	      2.81633640	     -4.74784104	     21.54274968	      4.08812943	     17.17804453	     14.33190680	     -3.75538027	    -10.33413206	    -29.84656787	     17.92042705	      2.32463338	     38.48646927	    -30.81341813	      3.89673588	      8.05640049
      1.74500000	     14.82185958	     -2.80650519	     -1.12234677	     -0.01171428	      0.93804834	      0.27765307	    -24.36963909	      5.94304761	      2.83682822	     -4.54861210	     21.77330798	      4.29685744	     16.87960853	     13.51553722	     -3.37181977	    -10.79533679	    -27.16616585	     17.18633665	      2.72369381	     38.26340868	    -31.18354614	      3.54988615	      8.14206950
      1.75000000	     15.09339759	     -2.63575885	     -1.36940912	     -0.00488241	      0.93768143	      0.27772731	    -25.17928538	      5.62119353	      2.84873692	     -4.45857494	     22.11284292	      4.64280995	     16.52653616	     12.82002964	     -3.09116478	    -11.46890860	    -24.57704696	     16.40255810	      3.37647431	     38.11540262	    -31.45339692	      3.22597847	      8.28352502
      1.75500000	     15.28598297	     -2.56155932	     -1.58247037	      0.00178858	      0.93711304	      0.27777334	    -25.85580365	      5.41704460	      2.97005721	     -4.44654355	     22.41194326	      4.76236882	     16.28698126	     12.27458891	     -2.89464372	    -12.06996132	    -22.13825198	     15.63425585	      3.86463743	     37.98760618	    -31.65072888	      2.99492295	      8.52366280
      1.76000000	     15.40175540	     -2.52387714	     -1.70629010	      0.00853096	      0.93634307	      0.27769662	    -26.45126498	      5.29042576	      3.01573290	     -4.44372529	     22.69751488	      4.94337522	     16.10908382	     11.82434926	     -2.71753367	    -12.50797156	    -19.75642117	     14.87313583	      4.43010387	     37.93848490	    -31.74872021	      2.85431624	      8.67787869
      1.76500000	     15.62308718	     -2.41465811	     -1.81883127	      0.01529644	      0.93568450	      0.27759630	    -27.17633682	      5.07646916	      2.89547839	     -4.41212855	     22.96426845	      5.27876370	     15.82132262	     11.23417360	     -2.44317325	    -12.94516301	    -17.38596228	     13.97453347	      4.91069095	     38.01388045	    -31.95517735	      2.64133707	      8.75184423
      1.77000000	     15.79920932	     -2.31485624	     -1.87881814	      0.02217639	      0.93490479	      0.27736465	    -27.86624700	      4.88410317	      2.75477676	     -4.37600108	     23.35903858	      5.74262937	     14.65032737	     10.71803794	     -2.15896719	    -13.31483241	    -15.13922447	     13.14538560	      5.40463547	     38.88005602	    -32.10413601	      2.46699667	      8.74422533
      1.77500000	     15.79937043	     -2.30178017	     -1.91861585	      0.02896362	      0.93386855	      0.27696274	    -28.31458193	      4.78957724	      2.65589202	     -4.41403530	     23.63490639	      6.12629842	     14.62493807	     10.43328277	     -1.95900920	    -13.55694507	    -13.05374814	     12.47589273	      5.77881119	     38.99930890	    -32.08132905	      2.42906390	      8.83884793
      1.78000000	     15.74523021	     -2.34584448	     -1.91767380	      0.03555801	      0.93272091	      0.27638360	    -28.65341847	      4.76903059	      2.63199392	     -4.53463834	     23.95009618	      6.36463877	     14.64386843	     10.22816724	     -1.78950694	    -13.65165178	    -11.08159190	     11.84751717	      5.97174574	     39.09716172	    -32.02308898	      2.46648003	      8.98093311
      1.78500000	     15.72369779	     -2.37514013	     -1.80615063	      0.04225744	      0.93155517	      0.27575813	    -29.04479656	      4.79589766	      2.40939718	     -4.64699120	     24.19794611	      6.59670657	     14.68514279	     10.01481556	     -1.60592095	    -13.70173189	     -9.27530121	     11.42522014	      6.44825284	     39.25865903	    -31.97514566	      2.53808343	      8.95647942
      1.79000000	     15.59324582	     -2.52120328	     -1.65998571	      0.04865446	      0.93014267	      0.27517666	    -29.28202516	      4.97126345	      2.37137183	     -4.79118394	     24.42874280	      6.64541338	     14.72863988	     10.06688362	     -1.57747176	    -13.63763358	     -7.85679798	     11.18923427	      6.92582946	     39.27686915	    -31.85134372	      2.74607556	      9.03174524
      1.79500000	     15.58948639	     -2.53942625	     -1.68390286	      0.05534214	      0.92903487	      0.27481219	    -29.64502412	      4.92146901	      2.21166597	     -4.99235250	     24.70897364	      7.09053973	     14.87644482	      9.91837308	     -1.44010674	    -13.89188202	     -6.55917687	     11.11509950	      7.56812379	     39.26770338	    -31.83771926	      2.72069266	      9.13846378
      1.80000000	     15.45293951	     -2.68750364	     -1.46458290	      0.06187490	      0.92759464	      0.27403673	    -29.87082584	      5.12404686	      2.04266361	     -5.16248223	     24.88468368	      7.21143869	     14.95029739	     10.09974705	     -1.42733027	    -13.88810573	     -5.70094477	     11.22738360	      8.17657288	     39.28975834	    -31.67605691	      2.94964328	      9.10245737
      1.80500000	     15.21441787	     -2.82625062	     -1.24890719	      0.06870013	      0.92608813	      0.27319216	    -29.96805588	      5.31972283	      1.81170233	     -5.39288450	     25.04553660	      7.36191601	     15.05045485	     10.40315251	     -1.40131884	    -13.96808328	     -5.06559751	     11.46543146	      8.78744484	     39.26096608	    -31.40382872	      3.19403956	      9.00234798
      1.81000000	     14.85880975	     -3.08918007	     -0.92412005	      0.07529512	      0.92436374	      0.27206881	    -29.85107377	      5.67615752	      1.57358533	     -5.77427112	     25.24709178	      7.53501796	     15.32480095	     10.99692673	     -1.51076540	    -13.83420709	     -4.88196612	     11.89023284	      9.22439714	     38.86925838	    -31.01891777	      3.62118627	      9.01643609
      1.81500000	     14.65103875	     -3.22746049	     -0.60757056	      0.08225323	      0.92279405	      0.27115004	    -29.99323523	      5.92212340	      1.20709672	     -6.01023623	     25.37601683	      7.69767140	     15.48316732	     11.42693092	     -1.51694250	    -13.86757779	     -4.92307990	     12.30005403	      9.87143717	     38.85864475	    -30.73573783	      3.88939497	      8.81126672
      1.82000000	     14.43682242	     -3.40786863	     -0.42686784	      0.08913795	      0.92130755	      0.27038914	    -30.05879822	      6.13545217	      1.02514765	     -6.36751514	     25.56611406	      7.89293806	     15.72763371	     11.90894073	     -1.61178394	    -13.88823679	     -5.25368322	     12.68144173	     10.31170570	     38.79486340	    -30.46844421	      4.13785138	      8.85967791
